<mxfile host="Electron" agent="Mozilla/5.0 (X11; Linux x86_64) AppleWebKit/537.36 (KHTML, like Gecko) draw.io/27.0.9 Chrome/134.0.6998.205 Electron/35.4.0 Safari/537.36" version="27.0.9">
  <diagram name="PÃ¡gina-1" id="1H9ajF-_-uDlNvEuehBB">
    <mxGraphModel dx="1645" dy="877" grid="0" gridSize="10" guides="1" tooltips="1" connect="1" arrows="1" fold="1" page="1" pageScale="1" pageWidth="827" pageHeight="1169" math="0" shadow="0">
      <root>
        <mxCell id="0" />
        <mxCell id="1" parent="0" />
        <mxCell id="lrwaEqQYKMA3znreD-7c-4" value="1" style="html=1;overflow=block;blockSpacing=1;whiteSpace=wrap;ellipse;fontSize=10;align=center;spacing=3.8;strokeOpacity=100;rounded=0;absoluteArcSize=1;arcSize=9;strokeWidth=NaN;lucidId=gr7n4lYt4T1x;labelBackgroundColor=none;" parent="1" vertex="1">
          <mxGeometry x="310" y="110" width="60" height="60" as="geometry" />
        </mxCell>
        <mxCell id="lrwaEqQYKMA3znreD-7c-5" value="" style="html=1;jettySize=18;whiteSpace=wrap;fontSize=13;strokeOpacity=100;strokeWidth=1.5;rounded=0;arcSize=12;edgeStyle=orthogonalEdgeStyle;startArrow=none;endArrow=block;endFill=1;exitX=0.5;exitY=1.013;exitPerimeter=0;entryX=0.5;entryY=-0.013;entryPerimeter=0;lucidId=Tr7nbKWZ0~qz;labelBackgroundColor=none;fontColor=default;" parent="1" source="lrwaEqQYKMA3znreD-7c-4" target="lrwaEqQYKMA3znreD-7c-7" edge="1">
          <mxGeometry width="100" height="100" relative="1" as="geometry">
            <Array as="points" />
          </mxGeometry>
        </mxCell>
        <mxCell id="lrwaEqQYKMA3znreD-7c-127" value="&lt;b&gt;&lt;font style=&quot;font-size: 13px;&quot;&gt;i&lt;/font&gt;&lt;/b&gt;" style="edgeLabel;html=1;align=center;verticalAlign=middle;resizable=0;points=[];" parent="lrwaEqQYKMA3znreD-7c-5" vertex="1" connectable="0">
          <mxGeometry x="-0.2339" y="1" relative="1" as="geometry">
            <mxPoint as="offset" />
          </mxGeometry>
        </mxCell>
        <mxCell id="lrwaEqQYKMA3znreD-7c-7" value="2" style="html=1;overflow=block;blockSpacing=1;whiteSpace=wrap;ellipse;fontSize=10;align=center;spacing=3.8;strokeOpacity=100;rounded=0;absoluteArcSize=1;arcSize=9;strokeWidth=NaN;lucidId=Tr7n12R.XfZG;labelBackgroundColor=none;" parent="1" vertex="1">
          <mxGeometry x="310" y="200" width="60" height="60" as="geometry" />
        </mxCell>
        <mxCell id="lrwaEqQYKMA3znreD-7c-8" value="" style="html=1;jettySize=18;whiteSpace=wrap;fontSize=13;strokeOpacity=100;strokeWidth=1.5;rounded=0;arcSize=12;edgeStyle=orthogonalEdgeStyle;startArrow=none;endArrow=block;endFill=1;exitX=0.5;exitY=1.013;exitPerimeter=0;entryX=0.5;entryY=-0.013;entryPerimeter=0;lucidId=Ws7nHzFQJizJ;labelBackgroundColor=none;fontColor=default;" parent="1" source="lrwaEqQYKMA3znreD-7c-7" target="lrwaEqQYKMA3znreD-7c-10" edge="1">
          <mxGeometry width="100" height="100" relative="1" as="geometry">
            <Array as="points" />
          </mxGeometry>
        </mxCell>
        <mxCell id="lrwaEqQYKMA3znreD-7c-128" value="&lt;span style=&quot;color: rgba(0, 0, 0, 0); font-family: monospace; font-size: 0px; text-align: start; background-color: rgb(236, 236, 236);&quot;&gt;%3CmxGraphModel%3E%3Croot%3E%3CmxCell%20id%3D%220%22%2F%3E%3CmxCell%20id%3D%221%22%20parent%3D%220%22%2F%3E%3CmxCell%20id%3D%222%22%20value%3D%22iii%22%20style%3D%22text%3Bhtml%3D1%3Bresizable%3D0%3BlabelBackgroundColor%3Dnone%3Balign%3Dcenter%3BverticalAlign%3Dmiddle%3BfontStyle%3D1%3BfontSize%3D13.3%3Brounded%3D0%3B%22%20vertex%3D%221%22%20parent%3D%221%22%3E%3CmxGeometry%20x%3D%22340%22%20y%3D%22270.78000000000003%22%20as%3D%22geometry%22%2F%3E%3C%2FmxCell%3E%3C%2Froot%3E%3C%2FmxGraphModel%3E&lt;/span&gt;&lt;span style=&quot;color: rgba(0, 0, 0, 0); font-family: monospace; font-size: 0px; text-align: start; background-color: rgb(236, 236, 236);&quot;&gt;%3CmxGraphModel%3E%3Croot%3E%3CmxCell%20id%3D%220%22%2F%3E%3CmxCell%20id%3D%221%22%20parent%3D%220%22%2F%3E%3CmxCell%20id%3D%222%22%20value%3D%22iii%22%20style%3D%22text%3Bhtml%3D1%3Bresizable%3D0%3BlabelBackgroundColor%3Dnone%3Balign%3Dcenter%3BverticalAlign%3Dmiddle%3BfontStyle%3D1%3BfontSize%3D13.3%3Brounded%3D0%3B%22%20vertex%3D%221%22%20parent%3D%221%22%3E%3CmxGeometry%20x%3D%22340%22%20y%3D%22270.78000000000003%22%20as%3D%22geometry%22%2F%3E%3C%2FmxCell%3E%3C%2Froot%3E%3C%2FmxGraphModel%3E&lt;/span&gt;&lt;span style=&quot;color: rgba(0, 0, 0, 0); font-family: monospace; font-size: 0px; text-align: start; background-color: rgb(236, 236, 236);&quot;&gt;%3CmxGraphModel%3E%3Croot%3E%3CmxCell%20id%3D%220%22%2F%3E%3CmxCell%20id%3D%221%22%20parent%3D%220%22%2F%3E%3CmxCell%20id%3D%222%22%20value%3D%22iii%22%20style%3D%22text%3Bhtml%3D1%3Bresizable%3D0%3BlabelBackgroundColor%3Dnone%3Balign%3Dcenter%3BverticalAlign%3Dmiddle%3BfontStyle%3D1%3BfontSize%3D13.3%3Brounded%3D0%3B%22%20vertex%3D%221%22%20parent%3D%221%22%3E%3CmxGeometry%20x%3D%22340%22%20y%3D%22270.78000000000003%22%20as%3D%22geometry%22%2F%3E%3C%2FmxCell%3E%3C%2Froot%3E%3C%2FmxGraphModel%3E&lt;/span&gt;" style="edgeLabel;html=1;align=center;verticalAlign=middle;resizable=0;points=[];" parent="lrwaEqQYKMA3znreD-7c-8" vertex="1" connectable="0">
          <mxGeometry x="-0.2993" y="1" relative="1" as="geometry">
            <mxPoint as="offset" />
          </mxGeometry>
        </mxCell>
        <mxCell id="lrwaEqQYKMA3znreD-7c-130" value="&lt;b&gt;&lt;font style=&quot;font-size: 13px;&quot;&gt;ii&lt;/font&gt;&lt;/b&gt;" style="edgeLabel;html=1;align=center;verticalAlign=middle;resizable=0;points=[];" parent="lrwaEqQYKMA3znreD-7c-8" vertex="1" connectable="0">
          <mxGeometry x="-0.2993" y="-1" relative="1" as="geometry">
            <mxPoint x="1" y="1" as="offset" />
          </mxGeometry>
        </mxCell>
        <mxCell id="lrwaEqQYKMA3znreD-7c-10" value="3" style="html=1;overflow=block;blockSpacing=1;whiteSpace=wrap;ellipse;fontSize=10;align=center;spacing=3.8;strokeOpacity=100;rounded=0;absoluteArcSize=1;arcSize=9;strokeWidth=NaN;lucidId=Ws7nKWF0r7MZ;labelBackgroundColor=none;" parent="1" vertex="1">
          <mxGeometry x="310" y="290" width="60" height="60" as="geometry" />
        </mxCell>
        <mxCell id="lrwaEqQYKMA3znreD-7c-11" value="" style="html=1;jettySize=18;whiteSpace=wrap;fontSize=13;strokeOpacity=100;strokeWidth=1.5;rounded=0;arcSize=12;edgeStyle=orthogonalEdgeStyle;startArrow=none;endArrow=block;endFill=1;exitX=0.5;exitY=1.013;exitPerimeter=0;entryX=0.5;entryY=-0.013;entryPerimeter=0;lucidId=4s7nOA23c9Lb;labelBackgroundColor=none;fontColor=default;" parent="1" source="lrwaEqQYKMA3znreD-7c-10" target="lrwaEqQYKMA3znreD-7c-13" edge="1">
          <mxGeometry width="100" height="100" relative="1" as="geometry">
            <Array as="points" />
          </mxGeometry>
        </mxCell>
        <mxCell id="lrwaEqQYKMA3znreD-7c-131" value="&lt;b&gt;&lt;font style=&quot;font-size: 13px;&quot;&gt;iii&lt;/font&gt;&lt;/b&gt;" style="edgeLabel;html=1;align=center;verticalAlign=middle;resizable=0;points=[];" parent="lrwaEqQYKMA3znreD-7c-11" vertex="1" connectable="0">
          <mxGeometry x="-0.3647" y="-1" relative="1" as="geometry">
            <mxPoint as="offset" />
          </mxGeometry>
        </mxCell>
        <mxCell id="lrwaEqQYKMA3znreD-7c-13" value="4" style="html=1;overflow=block;blockSpacing=1;whiteSpace=wrap;ellipse;fontSize=10;align=center;spacing=3.8;strokeOpacity=100;rounded=0;absoluteArcSize=1;arcSize=9;strokeWidth=NaN;lucidId=4s7nlr1gQl5S;labelBackgroundColor=none;" parent="1" vertex="1">
          <mxGeometry x="310" y="380" width="60" height="60" as="geometry" />
        </mxCell>
        <mxCell id="lrwaEqQYKMA3znreD-7c-14" value="" style="html=1;jettySize=18;whiteSpace=wrap;fontSize=13;strokeOpacity=100;strokeWidth=1.5;rounded=0;arcSize=12;edgeStyle=orthogonalEdgeStyle;startArrow=none;endArrow=block;endFill=1;exitX=0.5;exitY=1.013;exitPerimeter=0;entryX=0.5;entryY=-0.013;entryPerimeter=0;lucidId=-s7nuru1Xb1R;labelBackgroundColor=none;fontColor=default;" parent="1" source="lrwaEqQYKMA3znreD-7c-13" target="lrwaEqQYKMA3znreD-7c-16" edge="1">
          <mxGeometry width="100" height="100" relative="1" as="geometry">
            <Array as="points" />
          </mxGeometry>
        </mxCell>
        <mxCell id="lrwaEqQYKMA3znreD-7c-132" value="&lt;b&gt;&lt;font style=&quot;font-size: 13px;&quot;&gt;iv&lt;/font&gt;&lt;/b&gt;" style="edgeLabel;html=1;align=center;verticalAlign=middle;resizable=0;points=[];" parent="lrwaEqQYKMA3znreD-7c-14" vertex="1" connectable="0">
          <mxGeometry x="-0.3974" relative="1" as="geometry">
            <mxPoint as="offset" />
          </mxGeometry>
        </mxCell>
        <mxCell id="lrwaEqQYKMA3znreD-7c-16" value="5" style="html=1;overflow=block;blockSpacing=1;whiteSpace=wrap;ellipse;fontSize=10;align=center;spacing=3.8;strokeOpacity=100;rounded=0;absoluteArcSize=1;arcSize=9;strokeWidth=NaN;lucidId=-s7nFN4nopYL;labelBackgroundColor=none;" parent="1" vertex="1">
          <mxGeometry x="310" y="470" width="60" height="60" as="geometry" />
        </mxCell>
        <mxCell id="lrwaEqQYKMA3znreD-7c-17" value="" style="html=1;jettySize=18;whiteSpace=wrap;fontSize=13;strokeOpacity=100;strokeWidth=1.5;rounded=0;arcSize=12;edgeStyle=orthogonalEdgeStyle;startArrow=none;endArrow=block;endFill=1;exitX=0.5;exitY=1.013;exitPerimeter=0;entryX=0.5;entryY=-0.013;entryPerimeter=0;lucidId=at7nd8NEkhZJ;labelBackgroundColor=none;fontColor=default;" parent="1" source="lrwaEqQYKMA3znreD-7c-16" target="lrwaEqQYKMA3znreD-7c-19" edge="1">
          <mxGeometry width="100" height="100" relative="1" as="geometry">
            <Array as="points" />
          </mxGeometry>
        </mxCell>
        <mxCell id="lrwaEqQYKMA3znreD-7c-133" value="&lt;b&gt;&lt;font style=&quot;font-size: 13px;&quot;&gt;v&lt;/font&gt;&lt;/b&gt;" style="edgeLabel;html=1;align=center;verticalAlign=middle;resizable=0;points=[];" parent="lrwaEqQYKMA3znreD-7c-17" vertex="1" connectable="0">
          <mxGeometry x="-0.4628" y="-1" relative="1" as="geometry">
            <mxPoint as="offset" />
          </mxGeometry>
        </mxCell>
        <mxCell id="lrwaEqQYKMA3znreD-7c-19" value="6" style="html=1;overflow=block;blockSpacing=1;whiteSpace=wrap;ellipse;fontSize=10;align=center;spacing=3.8;strokeOpacity=100;rounded=0;absoluteArcSize=1;arcSize=9;strokeWidth=NaN;lucidId=at7n2IR1nz86;labelBackgroundColor=none;" parent="1" vertex="1">
          <mxGeometry x="310" y="560" width="60" height="60" as="geometry" />
        </mxCell>
        <mxCell id="lrwaEqQYKMA3znreD-7c-20" value="" style="html=1;jettySize=18;whiteSpace=wrap;fontSize=13;strokeOpacity=100;strokeWidth=1.5;rounded=0;arcSize=12;edgeStyle=orthogonalEdgeStyle;startArrow=none;endArrow=block;endFill=1;exitX=0.5;exitY=1.013;exitPerimeter=0;entryX=0.5;entryY=-0.013;entryPerimeter=0;lucidId=st7nROfuym9G;labelBackgroundColor=none;fontColor=default;" parent="1" source="lrwaEqQYKMA3znreD-7c-19" target="lrwaEqQYKMA3znreD-7c-22" edge="1">
          <mxGeometry width="100" height="100" relative="1" as="geometry">
            <Array as="points" />
          </mxGeometry>
        </mxCell>
        <mxCell id="lrwaEqQYKMA3znreD-7c-134" value="&lt;b&gt;&lt;font style=&quot;font-size: 13px;&quot;&gt;vi&lt;/font&gt;&lt;/b&gt;" style="edgeLabel;html=1;align=center;verticalAlign=middle;resizable=0;points=[];" parent="lrwaEqQYKMA3znreD-7c-20" vertex="1" connectable="0">
          <mxGeometry x="-0.3647" relative="1" as="geometry">
            <mxPoint as="offset" />
          </mxGeometry>
        </mxCell>
        <mxCell id="lrwaEqQYKMA3znreD-7c-22" value="7" style="html=1;overflow=block;blockSpacing=1;whiteSpace=wrap;ellipse;fontSize=10;align=center;spacing=3.8;strokeOpacity=100;rounded=0;absoluteArcSize=1;arcSize=9;strokeWidth=NaN;lucidId=rt7nD08MM-FN;labelBackgroundColor=none;" parent="1" vertex="1">
          <mxGeometry x="310" y="650" width="60" height="60" as="geometry" />
        </mxCell>
        <mxCell id="lrwaEqQYKMA3znreD-7c-23" value="" style="html=1;jettySize=18;whiteSpace=wrap;fontSize=13;strokeOpacity=100;strokeWidth=1.5;rounded=0;arcSize=12;edgeStyle=orthogonalEdgeStyle;startArrow=none;endArrow=block;endFill=1;exitX=0.5;exitY=1.013;exitPerimeter=0;entryX=0.5;entryY=-0.013;entryPerimeter=0;lucidId=Bt7nbzi.-sLt;labelBackgroundColor=none;fontColor=default;" parent="1" source="lrwaEqQYKMA3znreD-7c-22" target="lrwaEqQYKMA3znreD-7c-25" edge="1">
          <mxGeometry width="100" height="100" relative="1" as="geometry">
            <Array as="points" />
          </mxGeometry>
        </mxCell>
        <mxCell id="lrwaEqQYKMA3znreD-7c-135" value="&lt;b&gt;&lt;font style=&quot;font-size: 13px;&quot;&gt;vii&lt;/font&gt;&lt;/b&gt;" style="edgeLabel;html=1;align=center;verticalAlign=middle;resizable=0;points=[];" parent="lrwaEqQYKMA3znreD-7c-23" vertex="1" connectable="0">
          <mxGeometry x="-0.2666" y="1" relative="1" as="geometry">
            <mxPoint as="offset" />
          </mxGeometry>
        </mxCell>
        <mxCell id="lrwaEqQYKMA3znreD-7c-25" value="8" style="html=1;overflow=block;blockSpacing=1;whiteSpace=wrap;ellipse;fontSize=10;align=center;spacing=3.8;strokeOpacity=100;rounded=0;absoluteArcSize=1;arcSize=9;strokeWidth=NaN;lucidId=Bt7nBtGYUdk0;labelBackgroundColor=none;" parent="1" vertex="1">
          <mxGeometry x="310" y="740" width="60" height="60" as="geometry" />
        </mxCell>
        <mxCell id="lrwaEqQYKMA3znreD-7c-26" value="" style="html=1;jettySize=18;whiteSpace=wrap;fontSize=13;strokeOpacity=100;strokeWidth=1.5;rounded=0;arcSize=12;edgeStyle=orthogonalEdgeStyle;startArrow=none;endArrow=block;endFill=1;exitX=0.5;exitY=1.013;exitPerimeter=0;entryX=0.5;entryY=-0.013;entryPerimeter=0;lucidId=It7n0AtlN5Vv;labelBackgroundColor=none;fontColor=default;" parent="1" source="lrwaEqQYKMA3znreD-7c-25" target="lrwaEqQYKMA3znreD-7c-28" edge="1">
          <mxGeometry width="100" height="100" relative="1" as="geometry">
            <Array as="points" />
          </mxGeometry>
        </mxCell>
        <mxCell id="lrwaEqQYKMA3znreD-7c-136" value="&lt;b&gt;&lt;font style=&quot;font-size: 13px;&quot;&gt;viii&lt;/font&gt;&lt;/b&gt;" style="edgeLabel;html=1;align=center;verticalAlign=middle;resizable=0;points=[];" parent="lrwaEqQYKMA3znreD-7c-26" vertex="1" connectable="0">
          <mxGeometry x="-0.4138" y="1" relative="1" as="geometry">
            <mxPoint as="offset" />
          </mxGeometry>
        </mxCell>
        <mxCell id="lrwaEqQYKMA3znreD-7c-28" value="9" style="html=1;overflow=block;blockSpacing=1;whiteSpace=wrap;ellipse;fontSize=10;align=center;spacing=3.8;strokeOpacity=100;rounded=0;absoluteArcSize=1;arcSize=9;strokeWidth=NaN;lucidId=It7nuMsEc0f7;labelBackgroundColor=none;" parent="1" vertex="1">
          <mxGeometry x="310" y="830" width="60" height="60" as="geometry" />
        </mxCell>
        <mxCell id="lrwaEqQYKMA3znreD-7c-29" value="" style="html=1;jettySize=18;whiteSpace=wrap;fontSize=13;strokeOpacity=100;strokeWidth=1.5;rounded=0;arcSize=12;edgeStyle=orthogonalEdgeStyle;startArrow=none;endArrow=block;endFill=1;exitX=0.5;exitY=1.013;exitPerimeter=0;entryX=0.5;entryY=-0.013;entryPerimeter=0;lucidId=fu7njbOQF1Od;labelBackgroundColor=none;fontColor=default;" parent="1" source="lrwaEqQYKMA3znreD-7c-28" target="lrwaEqQYKMA3znreD-7c-31" edge="1">
          <mxGeometry width="100" height="100" relative="1" as="geometry">
            <Array as="points" />
          </mxGeometry>
        </mxCell>
        <mxCell id="lrwaEqQYKMA3znreD-7c-137" value="&lt;b&gt;&lt;font style=&quot;font-size: 13px;&quot;&gt;ix&lt;/font&gt;&lt;/b&gt;" style="edgeLabel;html=1;align=center;verticalAlign=middle;resizable=0;points=[];" parent="lrwaEqQYKMA3znreD-7c-29" vertex="1" connectable="0">
          <mxGeometry x="-0.332" relative="1" as="geometry">
            <mxPoint as="offset" />
          </mxGeometry>
        </mxCell>
        <mxCell id="lrwaEqQYKMA3znreD-7c-31" value="10" style="html=1;overflow=block;blockSpacing=1;whiteSpace=wrap;ellipse;fontSize=10;align=center;spacing=3.8;strokeOpacity=100;rounded=0;absoluteArcSize=1;arcSize=9;strokeWidth=NaN;lucidId=fu7n0Ky0FBk6;labelBackgroundColor=none;" parent="1" vertex="1">
          <mxGeometry x="310" y="920" width="60" height="60" as="geometry" />
        </mxCell>
        <mxCell id="lrwaEqQYKMA3znreD-7c-32" value="" style="html=1;jettySize=18;whiteSpace=wrap;fontSize=13;strokeOpacity=100;strokeWidth=1.5;rounded=0;arcSize=12;edgeStyle=orthogonalEdgeStyle;startArrow=none;endArrow=block;endFill=1;exitX=0.5;exitY=1.013;exitPerimeter=0;entryX=0.5;entryY=-0.013;entryPerimeter=0;lucidId=lu7nWLZUF9mQ;labelBackgroundColor=none;fontColor=default;" parent="1" source="lrwaEqQYKMA3znreD-7c-31" target="lrwaEqQYKMA3znreD-7c-34" edge="1">
          <mxGeometry width="100" height="100" relative="1" as="geometry">
            <Array as="points" />
          </mxGeometry>
        </mxCell>
        <mxCell id="lrwaEqQYKMA3znreD-7c-138" value="&lt;span style=&quot;font-size: 13px;&quot;&gt;&lt;b&gt;x&lt;/b&gt;&lt;/span&gt;" style="edgeLabel;html=1;align=center;verticalAlign=middle;resizable=0;points=[];" parent="lrwaEqQYKMA3znreD-7c-32" vertex="1" connectable="0">
          <mxGeometry x="-0.4465" y="1" relative="1" as="geometry">
            <mxPoint as="offset" />
          </mxGeometry>
        </mxCell>
        <mxCell id="lrwaEqQYKMA3znreD-7c-34" value="11" style="html=1;overflow=block;blockSpacing=1;whiteSpace=wrap;ellipse;fontSize=10;align=center;spacing=3.8;strokeOpacity=100;rounded=0;absoluteArcSize=1;arcSize=9;strokeWidth=NaN;lucidId=lu7nIX9RcDvj;labelBackgroundColor=none;" parent="1" vertex="1">
          <mxGeometry x="310" y="1010" width="60" height="60" as="geometry" />
        </mxCell>
        <mxCell id="lrwaEqQYKMA3znreD-7c-35" value="" style="html=1;jettySize=18;whiteSpace=wrap;fontSize=13;strokeOpacity=100;strokeWidth=1.5;rounded=0;arcSize=12;edgeStyle=orthogonalEdgeStyle;startArrow=none;endArrow=block;endFill=1;exitX=0.5;exitY=1.013;exitPerimeter=0;entryX=0.5;entryY=-0.013;entryPerimeter=0;lucidId=uu7n_kg5O5mX;labelBackgroundColor=none;fontColor=default;" parent="1" source="lrwaEqQYKMA3znreD-7c-34" target="lrwaEqQYKMA3znreD-7c-37" edge="1">
          <mxGeometry width="100" height="100" relative="1" as="geometry">
            <Array as="points" />
          </mxGeometry>
        </mxCell>
        <mxCell id="lrwaEqQYKMA3znreD-7c-139" value="&lt;b&gt;&lt;font style=&quot;font-size: 13px;&quot;&gt;xi&lt;/font&gt;&lt;/b&gt;" style="edgeLabel;html=1;align=center;verticalAlign=middle;resizable=0;points=[];" parent="lrwaEqQYKMA3znreD-7c-35" vertex="1" connectable="0">
          <mxGeometry x="-0.3811" y="1" relative="1" as="geometry">
            <mxPoint as="offset" />
          </mxGeometry>
        </mxCell>
        <mxCell id="lrwaEqQYKMA3znreD-7c-37" value="12" style="html=1;overflow=block;blockSpacing=1;whiteSpace=wrap;ellipse;fontSize=10;align=center;spacing=3.8;strokeOpacity=100;rounded=0;absoluteArcSize=1;arcSize=9;strokeWidth=NaN;lucidId=uu7nKkPXsy1P;labelBackgroundColor=none;" parent="1" vertex="1">
          <mxGeometry x="310" y="1100" width="60" height="60" as="geometry" />
        </mxCell>
        <mxCell id="lrwaEqQYKMA3znreD-7c-38" value="13" style="html=1;overflow=block;blockSpacing=1;whiteSpace=wrap;ellipse;fontSize=10;align=center;spacing=3.8;strokeOpacity=100;rounded=0;absoluteArcSize=1;arcSize=9;strokeWidth=NaN;lucidId=Ku7naAXvH0L6;labelBackgroundColor=none;" parent="1" vertex="1">
          <mxGeometry x="310" y="1190" width="60" height="60" as="geometry" />
        </mxCell>
        <mxCell id="lrwaEqQYKMA3znreD-7c-39" value="" style="html=1;jettySize=18;whiteSpace=wrap;fontSize=13;strokeOpacity=100;strokeWidth=1.5;rounded=0;arcSize=12;edgeStyle=orthogonalEdgeStyle;startArrow=none;endArrow=block;endFill=1;exitX=0.5;exitY=1.013;exitPerimeter=0;entryX=0.5;entryY=-0.013;entryPerimeter=0;lucidId=Ku7nxD0Vz.4s;labelBackgroundColor=none;fontColor=default;" parent="1" source="lrwaEqQYKMA3znreD-7c-38" target="lrwaEqQYKMA3znreD-7c-42" edge="1">
          <mxGeometry width="100" height="100" relative="1" as="geometry">
            <Array as="points" />
          </mxGeometry>
        </mxCell>
        <mxCell id="lrwaEqQYKMA3znreD-7c-142" value="&lt;b&gt;&lt;font style=&quot;font-size: 13px;&quot;&gt;xiii&lt;/font&gt;&lt;/b&gt;" style="edgeLabel;html=1;align=center;verticalAlign=middle;resizable=0;points=[];" parent="lrwaEqQYKMA3znreD-7c-39" vertex="1" connectable="0">
          <mxGeometry x="-0.4465" y="1" relative="1" as="geometry">
            <mxPoint as="offset" />
          </mxGeometry>
        </mxCell>
        <mxCell id="lrwaEqQYKMA3znreD-7c-42" value="14" style="html=1;overflow=block;blockSpacing=1;whiteSpace=wrap;ellipse;fontSize=10;align=center;spacing=3.8;strokeOpacity=100;rounded=0;absoluteArcSize=1;arcSize=9;strokeWidth=NaN;lucidId=Ku7nhI01l5jz;labelBackgroundColor=none;" parent="1" vertex="1">
          <mxGeometry x="310" y="1280" width="60" height="60" as="geometry" />
        </mxCell>
        <mxCell id="lrwaEqQYKMA3znreD-7c-43" value="" style="html=1;jettySize=18;whiteSpace=wrap;fontSize=13;strokeOpacity=100;strokeWidth=1.5;rounded=0;arcSize=12;edgeStyle=orthogonalEdgeStyle;startArrow=none;endArrow=block;endFill=1;exitX=0.5;exitY=1.013;exitPerimeter=0;entryX=0.5;entryY=-0.013;entryPerimeter=0;lucidId=Ku7npBse~jgQ;labelBackgroundColor=none;fontColor=default;" parent="1" source="lrwaEqQYKMA3znreD-7c-42" target="lrwaEqQYKMA3znreD-7c-45" edge="1">
          <mxGeometry width="100" height="100" relative="1" as="geometry">
            <Array as="points" />
          </mxGeometry>
        </mxCell>
        <mxCell id="lrwaEqQYKMA3znreD-7c-143" value="&lt;span style=&quot;font-size: 13px;&quot;&gt;&lt;b&gt;xiv&lt;/b&gt;&lt;/span&gt;" style="edgeLabel;html=1;align=center;verticalAlign=middle;resizable=0;points=[];" parent="lrwaEqQYKMA3znreD-7c-43" vertex="1" connectable="0">
          <mxGeometry x="-0.4628" relative="1" as="geometry">
            <mxPoint as="offset" />
          </mxGeometry>
        </mxCell>
        <mxCell id="lrwaEqQYKMA3znreD-7c-45" value="15" style="html=1;overflow=block;blockSpacing=1;whiteSpace=wrap;ellipse;fontSize=10;align=center;spacing=3.8;strokeOpacity=100;rounded=0;absoluteArcSize=1;arcSize=9;strokeWidth=NaN;lucidId=Ku7nl4Z9bBDb;labelBackgroundColor=none;" parent="1" vertex="1">
          <mxGeometry x="310" y="1370" width="60" height="60" as="geometry" />
        </mxCell>
        <mxCell id="lrwaEqQYKMA3znreD-7c-46" value="" style="html=1;jettySize=18;whiteSpace=wrap;fontSize=13;strokeOpacity=100;strokeWidth=1.5;rounded=0;arcSize=12;edgeStyle=orthogonalEdgeStyle;startArrow=none;endArrow=block;endFill=1;exitX=0.5;exitY=1.013;exitPerimeter=0;entryX=0.5;entryY=-0.013;entryPerimeter=0;lucidId=Ku7ndgU3NoQ.;labelBackgroundColor=none;fontColor=default;" parent="1" source="lrwaEqQYKMA3znreD-7c-45" target="lrwaEqQYKMA3znreD-7c-48" edge="1">
          <mxGeometry width="100" height="100" relative="1" as="geometry">
            <Array as="points" />
          </mxGeometry>
        </mxCell>
        <mxCell id="lrwaEqQYKMA3znreD-7c-144" value="&lt;b&gt;&lt;font style=&quot;font-size: 13px;&quot;&gt;xv&lt;/font&gt;&lt;/b&gt;" style="edgeLabel;html=1;align=center;verticalAlign=middle;resizable=0;points=[];" parent="lrwaEqQYKMA3znreD-7c-46" vertex="1" connectable="0">
          <mxGeometry x="-0.5119" relative="1" as="geometry">
            <mxPoint as="offset" />
          </mxGeometry>
        </mxCell>
        <mxCell id="lrwaEqQYKMA3znreD-7c-48" value="16" style="html=1;overflow=block;blockSpacing=1;whiteSpace=wrap;ellipse;fontSize=10;align=center;spacing=3.8;strokeOpacity=100;rounded=0;absoluteArcSize=1;arcSize=9;strokeWidth=NaN;lucidId=Ku7nLiyo~Gye;labelBackgroundColor=none;" parent="1" vertex="1">
          <mxGeometry x="310" y="1460" width="60" height="60" as="geometry" />
        </mxCell>
        <mxCell id="lrwaEqQYKMA3znreD-7c-49" value="" style="html=1;jettySize=18;whiteSpace=wrap;fontSize=13;strokeOpacity=100;strokeWidth=1.5;rounded=0;arcSize=12;edgeStyle=orthogonalEdgeStyle;startArrow=none;endArrow=block;endFill=1;exitX=0.5;exitY=1.013;exitPerimeter=0;entryX=0.5;entryY=-0.013;entryPerimeter=0;lucidId=Ku7nq7i8M~oU;labelBackgroundColor=none;fontColor=default;" parent="1" source="lrwaEqQYKMA3znreD-7c-48" target="lrwaEqQYKMA3znreD-7c-51" edge="1">
          <mxGeometry width="100" height="100" relative="1" as="geometry">
            <Array as="points" />
          </mxGeometry>
        </mxCell>
        <mxCell id="lrwaEqQYKMA3znreD-7c-145" value="&lt;b&gt;&lt;font style=&quot;font-size: 13px;&quot;&gt;xvi&lt;/font&gt;&lt;/b&gt;" style="edgeLabel;html=1;align=center;verticalAlign=middle;resizable=0;points=[];" parent="lrwaEqQYKMA3znreD-7c-49" vertex="1" connectable="0">
          <mxGeometry x="-0.4465" y="1" relative="1" as="geometry">
            <mxPoint as="offset" />
          </mxGeometry>
        </mxCell>
        <mxCell id="lrwaEqQYKMA3znreD-7c-51" value="17" style="html=1;overflow=block;blockSpacing=1;whiteSpace=wrap;ellipse;fontSize=10;align=center;spacing=3.8;strokeOpacity=100;rounded=0;absoluteArcSize=1;arcSize=9;strokeWidth=NaN;lucidId=Ku7niNABpTzU;labelBackgroundColor=none;" parent="1" vertex="1">
          <mxGeometry x="310" y="1550" width="60" height="60" as="geometry" />
        </mxCell>
        <mxCell id="lrwaEqQYKMA3znreD-7c-52" value="" style="html=1;jettySize=18;whiteSpace=wrap;fontSize=13;strokeOpacity=100;strokeWidth=1.5;rounded=0;arcSize=12;edgeStyle=orthogonalEdgeStyle;startArrow=none;endArrow=block;endFill=1;exitX=0.5;exitY=1.013;exitPerimeter=0;entryX=0.5;entryY=-0.013;entryPerimeter=0;lucidId=Ku7nyG0sldzZ;labelBackgroundColor=none;fontColor=default;" parent="1" source="lrwaEqQYKMA3znreD-7c-51" target="lrwaEqQYKMA3znreD-7c-54" edge="1">
          <mxGeometry width="100" height="100" relative="1" as="geometry">
            <Array as="points" />
          </mxGeometry>
        </mxCell>
        <mxCell id="lrwaEqQYKMA3znreD-7c-146" value="&lt;b&gt;&lt;font style=&quot;font-size: 13px;&quot;&gt;xvii&lt;/font&gt;&lt;/b&gt;" style="edgeLabel;html=1;align=center;verticalAlign=middle;resizable=0;points=[];" parent="lrwaEqQYKMA3znreD-7c-52" vertex="1" connectable="0">
          <mxGeometry x="-0.3647" y="-1" relative="1" as="geometry">
            <mxPoint as="offset" />
          </mxGeometry>
        </mxCell>
        <mxCell id="lrwaEqQYKMA3znreD-7c-54" value="18" style="html=1;overflow=block;blockSpacing=1;whiteSpace=wrap;ellipse;fontSize=10;align=center;spacing=3.8;strokeOpacity=100;rounded=0;absoluteArcSize=1;arcSize=9;strokeWidth=NaN;lucidId=Ku7nt1SMllPA;labelBackgroundColor=none;" parent="1" vertex="1">
          <mxGeometry x="310" y="1640" width="60" height="60" as="geometry" />
        </mxCell>
        <mxCell id="lrwaEqQYKMA3znreD-7c-55" value="" style="html=1;jettySize=18;whiteSpace=wrap;fontSize=13;strokeOpacity=100;strokeWidth=1.5;rounded=0;arcSize=12;edgeStyle=orthogonalEdgeStyle;startArrow=none;endArrow=block;endFill=1;exitX=0.5;exitY=1.013;exitPerimeter=0;entryX=0.5;entryY=-0.013;entryPerimeter=0;lucidId=Ku7ngJB.PbN6;labelBackgroundColor=none;fontColor=default;" parent="1" source="lrwaEqQYKMA3znreD-7c-54" target="lrwaEqQYKMA3znreD-7c-57" edge="1">
          <mxGeometry width="100" height="100" relative="1" as="geometry">
            <Array as="points" />
          </mxGeometry>
        </mxCell>
        <mxCell id="lrwaEqQYKMA3znreD-7c-147" value="&lt;b&gt;&lt;font style=&quot;font-size: 13px;&quot;&gt;xviii&lt;/font&gt;&lt;/b&gt;" style="edgeLabel;html=1;align=center;verticalAlign=middle;resizable=0;points=[];" parent="lrwaEqQYKMA3znreD-7c-55" vertex="1" connectable="0">
          <mxGeometry x="-0.3647" relative="1" as="geometry">
            <mxPoint as="offset" />
          </mxGeometry>
        </mxCell>
        <mxCell id="lrwaEqQYKMA3znreD-7c-57" value="19" style="html=1;overflow=block;blockSpacing=1;whiteSpace=wrap;ellipse;fontSize=10;align=center;spacing=3.8;strokeOpacity=100;rounded=0;absoluteArcSize=1;arcSize=9;strokeWidth=NaN;lucidId=Ku7n-Dejs-3j;labelBackgroundColor=none;" parent="1" vertex="1">
          <mxGeometry x="310" y="1730" width="60" height="60" as="geometry" />
        </mxCell>
        <mxCell id="lrwaEqQYKMA3znreD-7c-58" value="" style="html=1;jettySize=18;whiteSpace=wrap;fontSize=13;strokeOpacity=100;strokeWidth=1.5;rounded=0;arcSize=12;edgeStyle=orthogonalEdgeStyle;startArrow=none;endArrow=block;endFill=1;exitX=0.5;exitY=1.013;exitPerimeter=0;entryX=0.5;entryY=-0.013;entryPerimeter=0;lucidId=Ku7nO19Xiz25;labelBackgroundColor=none;fontColor=default;" parent="1" source="lrwaEqQYKMA3znreD-7c-57" target="lrwaEqQYKMA3znreD-7c-60" edge="1">
          <mxGeometry width="100" height="100" relative="1" as="geometry">
            <Array as="points" />
          </mxGeometry>
        </mxCell>
        <mxCell id="lrwaEqQYKMA3znreD-7c-148" value="&lt;b&gt;&lt;font style=&quot;font-size: 13px;&quot;&gt;xix&lt;/font&gt;&lt;/b&gt;" style="edgeLabel;html=1;align=center;verticalAlign=middle;resizable=0;points=[];" parent="lrwaEqQYKMA3znreD-7c-58" vertex="1" connectable="0">
          <mxGeometry x="-0.4465" relative="1" as="geometry">
            <mxPoint as="offset" />
          </mxGeometry>
        </mxCell>
        <mxCell id="lrwaEqQYKMA3znreD-7c-60" value="20" style="html=1;overflow=block;blockSpacing=1;whiteSpace=wrap;ellipse;fontSize=10;align=center;spacing=3.8;strokeOpacity=100;rounded=0;absoluteArcSize=1;arcSize=9;strokeWidth=NaN;lucidId=Ku7ne._25ZX7;labelBackgroundColor=none;" parent="1" vertex="1">
          <mxGeometry x="310" y="1820" width="60" height="60" as="geometry" />
        </mxCell>
        <mxCell id="lrwaEqQYKMA3znreD-7c-61" value="" style="html=1;jettySize=18;whiteSpace=wrap;fontSize=13;strokeOpacity=100;strokeWidth=1.5;rounded=0;arcSize=12;edgeStyle=orthogonalEdgeStyle;startArrow=none;endArrow=block;endFill=1;exitX=0.5;exitY=1.013;exitPerimeter=0;entryX=0.5;entryY=-0.013;entryPerimeter=0;lucidId=Ku7nK.exvap0;labelBackgroundColor=none;fontColor=default;" parent="1" source="lrwaEqQYKMA3znreD-7c-60" target="lrwaEqQYKMA3znreD-7c-63" edge="1">
          <mxGeometry width="100" height="100" relative="1" as="geometry">
            <Array as="points" />
          </mxGeometry>
        </mxCell>
        <mxCell id="lrwaEqQYKMA3znreD-7c-149" value="&lt;b&gt;&lt;font style=&quot;font-size: 13px;&quot;&gt;xx&lt;/font&gt;&lt;/b&gt;" style="edgeLabel;html=1;align=center;verticalAlign=middle;resizable=0;points=[];" parent="lrwaEqQYKMA3znreD-7c-61" vertex="1" connectable="0">
          <mxGeometry x="-0.1848" y="1" relative="1" as="geometry">
            <mxPoint as="offset" />
          </mxGeometry>
        </mxCell>
        <mxCell id="lrwaEqQYKMA3znreD-7c-63" value="21" style="html=1;overflow=block;blockSpacing=1;whiteSpace=wrap;ellipse;fontSize=10;align=center;spacing=3.8;strokeOpacity=100;rounded=0;absoluteArcSize=1;arcSize=9;strokeWidth=NaN;lucidId=Ku7n_XJiYm~6;labelBackgroundColor=none;" parent="1" vertex="1">
          <mxGeometry x="310" y="1910" width="60" height="60" as="geometry" />
        </mxCell>
        <mxCell id="lrwaEqQYKMA3znreD-7c-64" value="" style="html=1;jettySize=18;whiteSpace=wrap;fontSize=13;strokeOpacity=100;strokeWidth=1.5;rounded=0;arcSize=12;edgeStyle=orthogonalEdgeStyle;startArrow=none;endArrow=block;endFill=1;exitX=0.5;exitY=1.013;exitPerimeter=0;entryX=0.5;entryY=-0.013;entryPerimeter=0;lucidId=Ku7nHq3R8py2;labelBackgroundColor=none;fontColor=default;" parent="1" source="lrwaEqQYKMA3znreD-7c-63" target="lrwaEqQYKMA3znreD-7c-66" edge="1">
          <mxGeometry width="100" height="100" relative="1" as="geometry">
            <Array as="points" />
          </mxGeometry>
        </mxCell>
        <mxCell id="lrwaEqQYKMA3znreD-7c-150" value="&lt;b&gt;&lt;font style=&quot;font-size: 13px;&quot;&gt;xxi&lt;/font&gt;&lt;/b&gt;" style="edgeLabel;html=1;align=center;verticalAlign=middle;resizable=0;points=[];" parent="lrwaEqQYKMA3znreD-7c-64" vertex="1" connectable="0">
          <mxGeometry x="-0.4792" y="1" relative="1" as="geometry">
            <mxPoint as="offset" />
          </mxGeometry>
        </mxCell>
        <mxCell id="lrwaEqQYKMA3znreD-7c-66" value="22" style="html=1;overflow=block;blockSpacing=1;whiteSpace=wrap;ellipse;fontSize=10;align=center;spacing=3.8;strokeOpacity=100;rounded=0;absoluteArcSize=1;arcSize=9;strokeWidth=NaN;lucidId=Ku7nhHHuc9ef;labelBackgroundColor=none;" parent="1" vertex="1">
          <mxGeometry x="310" y="2000" width="60" height="60" as="geometry" />
        </mxCell>
        <mxCell id="lrwaEqQYKMA3znreD-7c-67" value="" style="html=1;jettySize=18;whiteSpace=wrap;fontSize=13;strokeOpacity=100;strokeWidth=1.5;rounded=0;arcSize=12;edgeStyle=orthogonalEdgeStyle;startArrow=none;endArrow=block;endFill=1;exitX=0.5;exitY=1.013;exitPerimeter=0;entryX=0.5;entryY=-0.013;entryPerimeter=0;lucidId=Ku7nN.AjqpPV;labelBackgroundColor=none;fontColor=default;" parent="1" source="lrwaEqQYKMA3znreD-7c-66" target="lrwaEqQYKMA3znreD-7c-69" edge="1">
          <mxGeometry width="100" height="100" relative="1" as="geometry">
            <Array as="points" />
          </mxGeometry>
        </mxCell>
        <mxCell id="lrwaEqQYKMA3znreD-7c-151" value="&lt;b&gt;&lt;font style=&quot;font-size: 13px;&quot;&gt;xxii&lt;/font&gt;&lt;/b&gt;" style="edgeLabel;html=1;align=center;verticalAlign=middle;resizable=0;points=[];" parent="lrwaEqQYKMA3znreD-7c-67" vertex="1" connectable="0">
          <mxGeometry x="-0.4792" y="1" relative="1" as="geometry">
            <mxPoint as="offset" />
          </mxGeometry>
        </mxCell>
        <mxCell id="lrwaEqQYKMA3znreD-7c-69" value="23" style="html=1;overflow=block;blockSpacing=1;whiteSpace=wrap;ellipse;fontSize=10;align=center;spacing=3.8;strokeOpacity=100;rounded=0;absoluteArcSize=1;arcSize=9;strokeWidth=NaN;lucidId=Ku7nx1uzZRnS;labelBackgroundColor=none;" parent="1" vertex="1">
          <mxGeometry x="310" y="2090" width="60" height="60" as="geometry" />
        </mxCell>
        <mxCell id="lrwaEqQYKMA3znreD-7c-70" value="" style="html=1;jettySize=18;whiteSpace=wrap;fontSize=13;strokeOpacity=100;strokeWidth=1.5;rounded=0;arcSize=12;edgeStyle=orthogonalEdgeStyle;startArrow=none;endArrow=block;endFill=1;exitX=0.5;exitY=1.013;exitPerimeter=0;entryX=0.5;entryY=-0.013;entryPerimeter=0;lucidId=Ku7nWte~OX9F;labelBackgroundColor=none;fontColor=default;" parent="1" source="lrwaEqQYKMA3znreD-7c-69" target="lrwaEqQYKMA3znreD-7c-72" edge="1">
          <mxGeometry width="100" height="100" relative="1" as="geometry">
            <Array as="points" />
          </mxGeometry>
        </mxCell>
        <mxCell id="lrwaEqQYKMA3znreD-7c-152" value="&lt;b&gt;&lt;font style=&quot;font-size: 13px;&quot;&gt;xxiii&lt;/font&gt;&lt;/b&gt;" style="edgeLabel;html=1;align=center;verticalAlign=middle;resizable=0;points=[];" parent="lrwaEqQYKMA3znreD-7c-70" vertex="1" connectable="0">
          <mxGeometry x="-0.61" relative="1" as="geometry">
            <mxPoint as="offset" />
          </mxGeometry>
        </mxCell>
        <mxCell id="lrwaEqQYKMA3znreD-7c-72" value="24" style="html=1;overflow=block;blockSpacing=1;whiteSpace=wrap;ellipse;fontSize=10;align=center;spacing=3.8;strokeOpacity=100;rounded=0;absoluteArcSize=1;arcSize=9;strokeWidth=NaN;lucidId=Ku7ndAkhQWOD;labelBackgroundColor=none;" parent="1" vertex="1">
          <mxGeometry x="310" y="2180" width="60" height="60" as="geometry" />
        </mxCell>
        <mxCell id="lrwaEqQYKMA3znreD-7c-73" value="" style="html=1;jettySize=18;whiteSpace=wrap;fontSize=13;strokeOpacity=100;strokeWidth=1.5;rounded=0;arcSize=12;edgeStyle=orthogonalEdgeStyle;startArrow=none;endArrow=block;endFill=1;exitX=0.5;exitY=1.013;exitPerimeter=0;entryX=0.5;entryY=-0.013;entryPerimeter=0;lucidId=Ku7nQpEd_aMy;labelBackgroundColor=none;fontColor=default;" parent="1" source="lrwaEqQYKMA3znreD-7c-72" target="lrwaEqQYKMA3znreD-7c-75" edge="1">
          <mxGeometry width="100" height="100" relative="1" as="geometry">
            <Array as="points" />
          </mxGeometry>
        </mxCell>
        <mxCell id="lrwaEqQYKMA3znreD-7c-153" value="&lt;b&gt;&lt;font style=&quot;font-size: 13px;&quot;&gt;xxiv&lt;/font&gt;&lt;/b&gt;" style="edgeLabel;html=1;align=center;verticalAlign=middle;resizable=0;points=[];" parent="lrwaEqQYKMA3znreD-7c-73" vertex="1" connectable="0">
          <mxGeometry x="-0.4301" y="1" relative="1" as="geometry">
            <mxPoint as="offset" />
          </mxGeometry>
        </mxCell>
        <mxCell id="lrwaEqQYKMA3znreD-7c-75" value="25" style="html=1;overflow=block;blockSpacing=1;whiteSpace=wrap;ellipse;fontSize=10;align=center;spacing=3.8;strokeOpacity=100;rounded=0;absoluteArcSize=1;arcSize=9;strokeWidth=NaN;lucidId=Ku7nHYrCEaF5;labelBackgroundColor=none;" parent="1" vertex="1">
          <mxGeometry x="310" y="2270" width="60" height="60" as="geometry" />
        </mxCell>
        <mxCell id="lrwaEqQYKMA3znreD-7c-76" value="" style="html=1;jettySize=18;whiteSpace=wrap;fontSize=13;strokeWidth=1.5;rounded=0;arcSize=12;edgeStyle=orthogonalEdgeStyle;startArrow=none;endArrow=block;endFill=1;exitX=0.5;exitY=1;exitPerimeter=0;entryX=0.5;entryY=0;entryPerimeter=0;lucidId=Tu7nyLlLUioN;labelBackgroundColor=none;fontColor=default;" parent="1" source="lrwaEqQYKMA3znreD-7c-37" target="lrwaEqQYKMA3znreD-7c-38" edge="1">
          <mxGeometry width="100" height="100" relative="1" as="geometry">
            <Array as="points" />
          </mxGeometry>
        </mxCell>
        <mxCell id="lrwaEqQYKMA3znreD-7c-141" value="&lt;b&gt;&lt;font style=&quot;font-size: 13px;&quot;&gt;xii&lt;/font&gt;&lt;/b&gt;" style="edgeLabel;html=1;align=center;verticalAlign=middle;resizable=0;points=[];" parent="lrwaEqQYKMA3znreD-7c-76" vertex="1" connectable="0">
          <mxGeometry x="-0.4853" relative="1" as="geometry">
            <mxPoint as="offset" />
          </mxGeometry>
        </mxCell>
        <mxCell id="lrwaEqQYKMA3znreD-7c-78" value="26" style="html=1;overflow=block;blockSpacing=1;whiteSpace=wrap;ellipse;fontSize=10;align=center;spacing=3.8;strokeOpacity=100;rounded=0;absoluteArcSize=1;arcSize=9;strokeWidth=NaN;lucidId=2x7nV4zY9Uan;labelBackgroundColor=none;" parent="1" vertex="1">
          <mxGeometry x="310" y="2360" width="60" height="60" as="geometry" />
        </mxCell>
        <mxCell id="lrwaEqQYKMA3znreD-7c-79" value="" style="html=1;jettySize=18;whiteSpace=wrap;fontSize=13;strokeOpacity=100;strokeWidth=1.5;rounded=0;arcSize=12;edgeStyle=orthogonalEdgeStyle;startArrow=none;endArrow=block;endFill=1;exitX=0.5;exitY=1.013;exitPerimeter=0;entryX=0.5;entryY=-0.013;entryPerimeter=0;lucidId=2x7nB6qRFBM3;labelBackgroundColor=none;fontColor=default;" parent="1" source="lrwaEqQYKMA3znreD-7c-78" target="lrwaEqQYKMA3znreD-7c-81" edge="1">
          <mxGeometry width="100" height="100" relative="1" as="geometry">
            <Array as="points" />
          </mxGeometry>
        </mxCell>
        <mxCell id="lrwaEqQYKMA3znreD-7c-156" value="&lt;b&gt;&lt;font style=&quot;font-size: 13px;&quot;&gt;xxvi&lt;/font&gt;&lt;/b&gt;" style="edgeLabel;html=1;align=center;verticalAlign=middle;resizable=0;points=[];" parent="lrwaEqQYKMA3znreD-7c-79" vertex="1" connectable="0">
          <mxGeometry x="-0.5345" y="2" relative="1" as="geometry">
            <mxPoint as="offset" />
          </mxGeometry>
        </mxCell>
        <mxCell id="lrwaEqQYKMA3znreD-7c-81" value="27" style="html=1;overflow=block;blockSpacing=1;whiteSpace=wrap;ellipse;fontSize=10;align=center;spacing=3.8;strokeOpacity=100;rounded=0;absoluteArcSize=1;arcSize=9;strokeWidth=NaN;lucidId=2x7ncxspwqkf;labelBackgroundColor=none;" parent="1" vertex="1">
          <mxGeometry x="310" y="2450" width="60" height="60" as="geometry" />
        </mxCell>
        <mxCell id="lrwaEqQYKMA3znreD-7c-82" value="" style="html=1;jettySize=18;whiteSpace=wrap;fontSize=13;strokeOpacity=100;strokeWidth=1.5;rounded=0;arcSize=12;edgeStyle=orthogonalEdgeStyle;startArrow=none;endArrow=block;endFill=1;exitX=0.5;exitY=1.013;exitPerimeter=0;entryX=0.5;entryY=-0.013;entryPerimeter=0;lucidId=2x7npBRpC46o;labelBackgroundColor=none;fontColor=default;" parent="1" source="lrwaEqQYKMA3znreD-7c-81" target="lrwaEqQYKMA3znreD-7c-84" edge="1">
          <mxGeometry width="100" height="100" relative="1" as="geometry">
            <Array as="points" />
          </mxGeometry>
        </mxCell>
        <mxCell id="lrwaEqQYKMA3znreD-7c-157" value="&lt;b&gt;&lt;font style=&quot;font-size: 13px;&quot;&gt;xxvii&lt;/font&gt;&lt;/b&gt;" style="edgeLabel;html=1;align=center;verticalAlign=middle;resizable=0;points=[];" parent="lrwaEqQYKMA3znreD-7c-82" vertex="1" connectable="0">
          <mxGeometry x="-0.5626" y="1" relative="1" as="geometry">
            <mxPoint as="offset" />
          </mxGeometry>
        </mxCell>
        <mxCell id="lrwaEqQYKMA3znreD-7c-84" value="28" style="html=1;overflow=block;blockSpacing=1;whiteSpace=wrap;ellipse;fontSize=10;align=center;spacing=3.8;strokeOpacity=100;rounded=0;absoluteArcSize=1;arcSize=9;strokeWidth=NaN;lucidId=2x7ngQ7Cr0PR;labelBackgroundColor=none;" parent="1" vertex="1">
          <mxGeometry x="310" y="2540" width="60" height="60" as="geometry" />
        </mxCell>
        <mxCell id="lrwaEqQYKMA3znreD-7c-85" value="" style="html=1;jettySize=18;whiteSpace=wrap;fontSize=13;strokeOpacity=100;strokeWidth=1.5;rounded=0;arcSize=12;edgeStyle=orthogonalEdgeStyle;startArrow=none;endArrow=block;endFill=1;exitX=0.5;exitY=1.013;exitPerimeter=0;entryX=0.5;entryY=-0.013;entryPerimeter=0;lucidId=2x7niNCqRLbD;labelBackgroundColor=none;fontColor=default;" parent="1" source="lrwaEqQYKMA3znreD-7c-84" target="lrwaEqQYKMA3znreD-7c-91" edge="1">
          <mxGeometry width="100" height="100" relative="1" as="geometry">
            <Array as="points" />
          </mxGeometry>
        </mxCell>
        <mxCell id="lrwaEqQYKMA3znreD-7c-159" value="&lt;b&gt;&lt;font style=&quot;font-size: 13px;&quot;&gt;xxviii&lt;/font&gt;&lt;/b&gt;" style="edgeLabel;html=1;align=center;verticalAlign=middle;resizable=0;points=[];" parent="lrwaEqQYKMA3znreD-7c-85" vertex="1" connectable="0">
          <mxGeometry x="-0.3657" y="1" relative="1" as="geometry">
            <mxPoint as="offset" />
          </mxGeometry>
        </mxCell>
        <mxCell id="lrwaEqQYKMA3znreD-7c-87" style="edgeStyle=orthogonalEdgeStyle;rounded=0;hachureGap=4;orthogonalLoop=1;jettySize=auto;html=1;exitX=1;exitY=0.5;exitDx=0;exitDy=0;entryX=0.5;entryY=0;entryDx=0;entryDy=0;fontFamily=Architects Daughter;fontSource=https%3A%2F%2Ffonts.googleapis.com%2Fcss%3Ffamily%3DArchitects%2BDaughter;labelBackgroundColor=none;fontColor=default;" parent="1" source="lrwaEqQYKMA3znreD-7c-91" target="lrwaEqQYKMA3znreD-7c-94" edge="1">
          <mxGeometry relative="1" as="geometry" />
        </mxCell>
        <mxCell id="lrwaEqQYKMA3znreD-7c-163" value="&lt;b&gt;&lt;font style=&quot;font-size: 13px;&quot;&gt;xxxii&lt;/font&gt;&lt;/b&gt;" style="edgeLabel;html=1;align=center;verticalAlign=middle;resizable=0;points=[];" parent="lrwaEqQYKMA3znreD-7c-87" vertex="1" connectable="0">
          <mxGeometry x="0.5316" y="1" relative="1" as="geometry">
            <mxPoint as="offset" />
          </mxGeometry>
        </mxCell>
        <mxCell id="lrwaEqQYKMA3znreD-7c-89" style="edgeStyle=orthogonalEdgeStyle;rounded=0;hachureGap=4;orthogonalLoop=1;jettySize=auto;html=1;exitX=0;exitY=0.5;exitDx=0;exitDy=0;entryX=0.5;entryY=0;entryDx=0;entryDy=0;fontFamily=Architects Daughter;fontSource=https%3A%2F%2Ffonts.googleapis.com%2Fcss%3Ffamily%3DArchitects%2BDaughter;labelBackgroundColor=none;fontColor=default;" parent="1" source="lrwaEqQYKMA3znreD-7c-91" target="lrwaEqQYKMA3znreD-7c-103" edge="1">
          <mxGeometry relative="1" as="geometry" />
        </mxCell>
        <mxCell id="lrwaEqQYKMA3znreD-7c-160" value="&lt;b&gt;&lt;font style=&quot;font-size: 13px;&quot;&gt;xxix&lt;/font&gt;&lt;/b&gt;" style="edgeLabel;html=1;align=center;verticalAlign=middle;resizable=0;points=[];" parent="lrwaEqQYKMA3znreD-7c-89" vertex="1" connectable="0">
          <mxGeometry x="0.5267" y="1" relative="1" as="geometry">
            <mxPoint as="offset" />
          </mxGeometry>
        </mxCell>
        <mxCell id="lrwaEqQYKMA3znreD-7c-91" value="29" style="html=1;overflow=block;blockSpacing=1;whiteSpace=wrap;ellipse;fontSize=10;align=center;spacing=3.8;strokeOpacity=100;rounded=0;absoluteArcSize=1;arcSize=9;strokeWidth=NaN;lucidId=2x7nmoQa2AxB;labelBackgroundColor=none;" parent="1" vertex="1">
          <mxGeometry x="310" y="2630" width="60" height="60" as="geometry" />
        </mxCell>
        <mxCell id="lrwaEqQYKMA3znreD-7c-92" value="" style="html=1;jettySize=18;whiteSpace=wrap;fontSize=13;strokeWidth=1.5;rounded=0;arcSize=12;edgeStyle=orthogonalEdgeStyle;startArrow=none;endArrow=block;endFill=1;exitX=0.5;exitY=1;exitPerimeter=0;entryX=0.5;entryY=0;entryPerimeter=0;lucidId=9x7nF.S1IjyB;labelBackgroundColor=none;fontColor=default;" parent="1" source="lrwaEqQYKMA3znreD-7c-75" target="lrwaEqQYKMA3znreD-7c-78" edge="1">
          <mxGeometry width="100" height="100" relative="1" as="geometry">
            <Array as="points" />
          </mxGeometry>
        </mxCell>
        <mxCell id="lrwaEqQYKMA3znreD-7c-155" value="&lt;b&gt;&lt;font style=&quot;font-size: 13px;&quot;&gt;xxv&lt;/font&gt;&lt;/b&gt;" style="edgeLabel;html=1;align=center;verticalAlign=middle;resizable=0;points=[];" parent="lrwaEqQYKMA3znreD-7c-92" vertex="1" connectable="0">
          <mxGeometry x="-0.4267" relative="1" as="geometry">
            <mxPoint as="offset" />
          </mxGeometry>
        </mxCell>
        <mxCell id="lrwaEqQYKMA3znreD-7c-94" value="32" style="html=1;overflow=block;blockSpacing=1;whiteSpace=wrap;ellipse;fontSize=10;align=center;spacing=3.8;strokeOpacity=100;rounded=0;absoluteArcSize=1;arcSize=9;strokeWidth=NaN;lucidId=2x7ncxspwqkf;labelBackgroundColor=none;" parent="1" vertex="1">
          <mxGeometry x="411" y="2706" width="60" height="60" as="geometry" />
        </mxCell>
        <mxCell id="lrwaEqQYKMA3znreD-7c-95" value="" style="html=1;jettySize=18;whiteSpace=wrap;fontSize=13;strokeOpacity=100;strokeWidth=1.5;rounded=0;arcSize=12;edgeStyle=orthogonalEdgeStyle;startArrow=none;endArrow=block;endFill=1;exitX=0.5;exitY=1.013;exitPerimeter=0;entryX=0.5;entryY=-0.013;entryPerimeter=0;lucidId=2x7npBRpC46o;labelBackgroundColor=none;fontColor=default;" parent="1" source="lrwaEqQYKMA3znreD-7c-94" target="lrwaEqQYKMA3znreD-7c-97" edge="1">
          <mxGeometry width="100" height="100" relative="1" as="geometry">
            <Array as="points" />
          </mxGeometry>
        </mxCell>
        <mxCell id="lrwaEqQYKMA3znreD-7c-164" value="&lt;b&gt;&lt;font style=&quot;font-size: 13px;&quot;&gt;xxxiii&lt;/font&gt;&lt;/b&gt;" style="edgeLabel;html=1;align=center;verticalAlign=middle;resizable=0;points=[];" parent="lrwaEqQYKMA3znreD-7c-95" vertex="1" connectable="0">
          <mxGeometry x="-0.4782" y="1" relative="1" as="geometry">
            <mxPoint as="offset" />
          </mxGeometry>
        </mxCell>
        <mxCell id="lrwaEqQYKMA3znreD-7c-97" value="33" style="html=1;overflow=block;blockSpacing=1;whiteSpace=wrap;ellipse;fontSize=10;align=center;spacing=3.8;strokeOpacity=100;rounded=0;absoluteArcSize=1;arcSize=9;strokeWidth=NaN;lucidId=2x7ngQ7Cr0PR;labelBackgroundColor=none;" parent="1" vertex="1">
          <mxGeometry x="411" y="2796" width="60" height="60" as="geometry" />
        </mxCell>
        <mxCell id="lrwaEqQYKMA3znreD-7c-98" value="" style="html=1;jettySize=18;whiteSpace=wrap;fontSize=13;strokeOpacity=100;strokeWidth=1.5;rounded=0;arcSize=12;edgeStyle=orthogonalEdgeStyle;startArrow=none;endArrow=block;endFill=1;exitX=0.5;exitY=1.013;exitPerimeter=0;entryX=0.5;entryY=-0.013;entryPerimeter=0;lucidId=2x7niNCqRLbD;labelBackgroundColor=none;fontColor=default;" parent="1" source="lrwaEqQYKMA3znreD-7c-97" target="lrwaEqQYKMA3znreD-7c-102" edge="1">
          <mxGeometry width="100" height="100" relative="1" as="geometry">
            <Array as="points" />
          </mxGeometry>
        </mxCell>
        <mxCell id="lrwaEqQYKMA3znreD-7c-165" value="&lt;b&gt;&lt;font style=&quot;font-size: 13px;&quot;&gt;xxxiv&lt;/font&gt;&lt;/b&gt;" style="edgeLabel;html=1;align=center;verticalAlign=middle;resizable=0;points=[];" parent="lrwaEqQYKMA3znreD-7c-98" vertex="1" connectable="0">
          <mxGeometry x="-0.0844" y="2" relative="1" as="geometry">
            <mxPoint as="offset" />
          </mxGeometry>
        </mxCell>
        <mxCell id="lrwaEqQYKMA3znreD-7c-100" style="edgeStyle=orthogonalEdgeStyle;rounded=0;hachureGap=4;orthogonalLoop=1;jettySize=auto;html=1;exitX=0;exitY=0.5;exitDx=0;exitDy=0;fontFamily=Architects Daughter;fontSource=https%3A%2F%2Ffonts.googleapis.com%2Fcss%3Ffamily%3DArchitects%2BDaughter;entryX=0;entryY=0.5;entryDx=0;entryDy=0;labelBackgroundColor=none;fontColor=default;" parent="1" source="lrwaEqQYKMA3znreD-7c-102" target="lrwaEqQYKMA3znreD-7c-75" edge="1">
          <mxGeometry relative="1" as="geometry">
            <mxPoint x="308" y="2211" as="targetPoint" />
            <Array as="points">
              <mxPoint x="150" y="2916" />
              <mxPoint x="150" y="2301" />
              <mxPoint x="310" y="2301" />
            </Array>
          </mxGeometry>
        </mxCell>
        <mxCell id="lrwaEqQYKMA3znreD-7c-166" value="&lt;b&gt;&lt;font style=&quot;font-size: 13px;&quot;&gt;xxxv&lt;/font&gt;&lt;/b&gt;" style="edgeLabel;html=1;align=center;verticalAlign=middle;resizable=0;points=[];" parent="lrwaEqQYKMA3znreD-7c-100" vertex="1" connectable="0">
          <mxGeometry x="-0.8831" y="-1" relative="1" as="geometry">
            <mxPoint as="offset" />
          </mxGeometry>
        </mxCell>
        <mxCell id="lrwaEqQYKMA3znreD-7c-102" value="34" style="html=1;overflow=block;blockSpacing=1;whiteSpace=wrap;ellipse;fontSize=10;align=center;spacing=3.8;strokeOpacity=100;rounded=0;absoluteArcSize=1;arcSize=9;strokeWidth=NaN;lucidId=2x7nmoQa2AxB;labelBackgroundColor=none;" parent="1" vertex="1">
          <mxGeometry x="411" y="2886" width="60" height="60" as="geometry" />
        </mxCell>
        <mxCell id="lrwaEqQYKMA3znreD-7c-103" value="30" style="html=1;overflow=block;blockSpacing=1;whiteSpace=wrap;ellipse;fontSize=10;align=center;spacing=3.8;strokeOpacity=100;rounded=0;absoluteArcSize=1;arcSize=9;strokeWidth=NaN;lucidId=2x7ncxspwqkf;labelBackgroundColor=none;" parent="1" vertex="1">
          <mxGeometry x="195" y="2706" width="60" height="60" as="geometry" />
        </mxCell>
        <mxCell id="lrwaEqQYKMA3znreD-7c-104" value="" style="html=1;jettySize=18;whiteSpace=wrap;fontSize=13;strokeOpacity=100;strokeWidth=1.5;rounded=0;arcSize=12;edgeStyle=orthogonalEdgeStyle;startArrow=none;endArrow=block;endFill=1;exitX=0.5;exitY=1.013;exitPerimeter=0;entryX=0.5;entryY=-0.013;entryPerimeter=0;lucidId=2x7npBRpC46o;labelBackgroundColor=none;fontColor=default;" parent="1" source="lrwaEqQYKMA3znreD-7c-103" target="lrwaEqQYKMA3znreD-7c-108" edge="1">
          <mxGeometry width="100" height="100" relative="1" as="geometry">
            <Array as="points" />
          </mxGeometry>
        </mxCell>
        <mxCell id="lrwaEqQYKMA3znreD-7c-161" value="&lt;b&gt;&lt;font style=&quot;font-size: 13px;&quot;&gt;xxx&lt;/font&gt;&lt;/b&gt;" style="edgeLabel;html=1;align=center;verticalAlign=middle;resizable=0;points=[];" parent="lrwaEqQYKMA3znreD-7c-104" vertex="1" connectable="0">
          <mxGeometry x="-0.2813" relative="1" as="geometry">
            <mxPoint as="offset" />
          </mxGeometry>
        </mxCell>
        <mxCell id="lrwaEqQYKMA3znreD-7c-106" style="edgeStyle=orthogonalEdgeStyle;rounded=0;hachureGap=4;orthogonalLoop=1;jettySize=auto;html=1;exitX=0.5;exitY=1;exitDx=0;exitDy=0;entryX=0;entryY=0.5;entryDx=0;entryDy=0;fontFamily=Architects Daughter;fontSource=https%3A%2F%2Ffonts.googleapis.com%2Fcss%3Ffamily%3DArchitects%2BDaughter;labelBackgroundColor=none;fontColor=default;" parent="1" source="lrwaEqQYKMA3znreD-7c-108" target="lrwaEqQYKMA3znreD-7c-75" edge="1">
          <mxGeometry relative="1" as="geometry">
            <Array as="points">
              <mxPoint x="225" y="2918" />
              <mxPoint x="152" y="2918" />
              <mxPoint x="152" y="2300" />
            </Array>
          </mxGeometry>
        </mxCell>
        <mxCell id="lrwaEqQYKMA3znreD-7c-162" value="&lt;b&gt;&lt;font style=&quot;font-size: 13px;&quot;&gt;xxxi&lt;/font&gt;&lt;/b&gt;" style="edgeLabel;html=1;align=center;verticalAlign=middle;resizable=0;points=[];" parent="lrwaEqQYKMA3znreD-7c-106" vertex="1" connectable="0">
          <mxGeometry x="-0.9495" y="2" relative="1" as="geometry">
            <mxPoint as="offset" />
          </mxGeometry>
        </mxCell>
        <mxCell id="lrwaEqQYKMA3znreD-7c-108" value="31" style="html=1;overflow=block;blockSpacing=1;whiteSpace=wrap;ellipse;fontSize=10;align=center;spacing=3.8;strokeOpacity=100;rounded=0;absoluteArcSize=1;arcSize=9;strokeWidth=NaN;lucidId=2x7ngQ7Cr0PR;labelBackgroundColor=none;" parent="1" vertex="1">
          <mxGeometry x="195" y="2796" width="60" height="60" as="geometry" />
        </mxCell>
        <mxCell id="lrwaEqQYKMA3znreD-7c-109" style="edgeStyle=orthogonalEdgeStyle;rounded=0;hachureGap=4;orthogonalLoop=1;jettySize=auto;html=1;exitX=0;exitY=0.5;exitDx=0;exitDy=0;entryX=0.5;entryY=0;entryDx=0;entryDy=0;fontFamily=Architects Daughter;fontSource=https%3A%2F%2Ffonts.googleapis.com%2Fcss%3Ffamily%3DArchitects%2BDaughter;labelBackgroundColor=none;fontColor=default;" parent="1" source="lrwaEqQYKMA3znreD-7c-113" target="lrwaEqQYKMA3znreD-7c-116" edge="1">
          <mxGeometry relative="1" as="geometry" />
        </mxCell>
        <mxCell id="lrwaEqQYKMA3znreD-7c-168" value="&lt;b&gt;&lt;font style=&quot;font-size: 13px;&quot;&gt;xxxvii&lt;/font&gt;&lt;/b&gt;" style="edgeLabel;html=1;align=center;verticalAlign=middle;resizable=0;points=[];" parent="lrwaEqQYKMA3znreD-7c-109" vertex="1" connectable="0">
          <mxGeometry x="0.3408" relative="1" as="geometry">
            <mxPoint as="offset" />
          </mxGeometry>
        </mxCell>
        <mxCell id="lrwaEqQYKMA3znreD-7c-111" style="edgeStyle=orthogonalEdgeStyle;rounded=0;hachureGap=4;orthogonalLoop=1;jettySize=auto;html=1;exitX=1;exitY=0.5;exitDx=0;exitDy=0;entryX=0.5;entryY=0;entryDx=0;entryDy=0;fontFamily=Architects Daughter;fontSource=https%3A%2F%2Ffonts.googleapis.com%2Fcss%3Ffamily%3DArchitects%2BDaughter;labelBackgroundColor=none;fontColor=default;" parent="1" source="lrwaEqQYKMA3znreD-7c-113" target="lrwaEqQYKMA3znreD-7c-119" edge="1">
          <mxGeometry relative="1" as="geometry" />
        </mxCell>
        <mxCell id="lrwaEqQYKMA3znreD-7c-170" value="&lt;b&gt;&lt;font style=&quot;font-size: 13px;&quot;&gt;ixl&lt;/font&gt;&lt;/b&gt;" style="edgeLabel;html=1;align=center;verticalAlign=middle;resizable=0;points=[];" parent="lrwaEqQYKMA3znreD-7c-111" vertex="1" connectable="0">
          <mxGeometry x="0.3183" y="1" relative="1" as="geometry">
            <mxPoint as="offset" />
          </mxGeometry>
        </mxCell>
        <mxCell id="lrwaEqQYKMA3znreD-7c-113" value="35" style="html=1;overflow=block;blockSpacing=1;whiteSpace=wrap;ellipse;fontSize=10;align=center;spacing=3.8;strokeOpacity=100;rounded=0;absoluteArcSize=1;arcSize=9;strokeWidth=NaN;lucidId=2x7nmoQa2AxB;labelBackgroundColor=none;" parent="1" vertex="1">
          <mxGeometry x="310" y="3003" width="60" height="60" as="geometry" />
        </mxCell>
        <mxCell id="lrwaEqQYKMA3znreD-7c-114" style="edgeStyle=orthogonalEdgeStyle;rounded=0;hachureGap=4;orthogonalLoop=1;jettySize=auto;html=1;exitX=0.993;exitY=0.59;exitDx=0;exitDy=0;fontFamily=Architects Daughter;fontSource=https%3A%2F%2Ffonts.googleapis.com%2Fcss%3Ffamily%3DArchitects%2BDaughter;entryX=0.5;entryY=0;entryDx=0;entryDy=0;exitPerimeter=0;labelBackgroundColor=none;fontColor=default;" parent="1" source="lrwaEqQYKMA3znreD-7c-75" target="lrwaEqQYKMA3znreD-7c-113" edge="1">
          <mxGeometry relative="1" as="geometry">
            <mxPoint x="340" y="2984" as="targetPoint" />
            <Array as="points">
              <mxPoint x="370" y="2303" />
              <mxPoint x="499" y="2303" />
              <mxPoint x="499" y="2967" />
              <mxPoint x="339" y="2967" />
              <mxPoint x="339" y="2984" />
              <mxPoint x="340" y="2984" />
            </Array>
          </mxGeometry>
        </mxCell>
        <mxCell id="lrwaEqQYKMA3znreD-7c-167" value="&lt;b&gt;&lt;font style=&quot;font-size: 13px;&quot;&gt;xxxvi&lt;/font&gt;&lt;/b&gt;" style="edgeLabel;html=1;align=center;verticalAlign=middle;resizable=0;points=[];" parent="lrwaEqQYKMA3znreD-7c-114" vertex="1" connectable="0">
          <mxGeometry x="-0.0101" y="1" relative="1" as="geometry">
            <mxPoint as="offset" />
          </mxGeometry>
        </mxCell>
        <mxCell id="lrwaEqQYKMA3znreD-7c-116" value="36" style="html=1;overflow=block;blockSpacing=1;whiteSpace=wrap;ellipse;fontSize=10;align=center;spacing=3.8;strokeOpacity=100;rounded=0;absoluteArcSize=1;arcSize=9;strokeWidth=NaN;lucidId=2x7nmoQa2AxB;labelBackgroundColor=none;" parent="1" vertex="1">
          <mxGeometry x="250" y="3074" width="60" height="60" as="geometry" />
        </mxCell>
        <mxCell id="lrwaEqQYKMA3znreD-7c-117" style="edgeStyle=orthogonalEdgeStyle;rounded=0;hachureGap=4;orthogonalLoop=1;jettySize=auto;html=1;exitX=0.5;exitY=1;exitDx=0;exitDy=0;entryX=0.5;entryY=0;entryDx=0;entryDy=0;fontFamily=Architects Daughter;fontSource=https%3A%2F%2Ffonts.googleapis.com%2Fcss%3Ffamily%3DArchitects%2BDaughter;labelBackgroundColor=none;fontColor=default;" parent="1" source="lrwaEqQYKMA3znreD-7c-119" target="lrwaEqQYKMA3znreD-7c-121" edge="1">
          <mxGeometry relative="1" as="geometry">
            <Array as="points">
              <mxPoint x="400" y="3154" />
              <mxPoint x="350" y="3154" />
              <mxPoint x="350" y="3153" />
              <mxPoint x="340" y="3153" />
            </Array>
          </mxGeometry>
        </mxCell>
        <mxCell id="lrwaEqQYKMA3znreD-7c-171" value="&lt;span style=&quot;font-size: 13px;&quot;&gt;&lt;b&gt;xl&lt;/b&gt;&lt;/span&gt;" style="edgeLabel;html=1;align=center;verticalAlign=middle;resizable=0;points=[];" parent="lrwaEqQYKMA3znreD-7c-117" vertex="1" connectable="0">
          <mxGeometry x="-0.8245" relative="1" as="geometry">
            <mxPoint as="offset" />
          </mxGeometry>
        </mxCell>
        <mxCell id="lrwaEqQYKMA3znreD-7c-119" value="37" style="html=1;overflow=block;blockSpacing=1;whiteSpace=wrap;ellipse;fontSize=10;align=center;spacing=3.8;strokeOpacity=100;rounded=0;absoluteArcSize=1;arcSize=9;strokeWidth=NaN;lucidId=2x7nmoQa2AxB;labelBackgroundColor=none;" parent="1" vertex="1">
          <mxGeometry x="370" y="3074" width="60" height="60" as="geometry" />
        </mxCell>
        <mxCell id="lrwaEqQYKMA3znreD-7c-121" value="38" style="html=1;overflow=block;blockSpacing=1;whiteSpace=wrap;ellipse;fontSize=10;align=center;spacing=3.8;strokeOpacity=100;rounded=0;absoluteArcSize=1;arcSize=9;strokeWidth=NaN;lucidId=2x7nmoQa2AxB;labelBackgroundColor=none;" parent="1" vertex="1">
          <mxGeometry x="310" y="3170" width="60" height="60" as="geometry" />
        </mxCell>
        <mxCell id="lrwaEqQYKMA3znreD-7c-122" style="edgeStyle=orthogonalEdgeStyle;rounded=0;hachureGap=4;orthogonalLoop=1;jettySize=auto;html=1;exitX=0.5;exitY=1;exitDx=0;exitDy=0;entryX=0.463;entryY=0.03;entryDx=0;entryDy=0;entryPerimeter=0;fontFamily=Architects Daughter;fontSource=https%3A%2F%2Ffonts.googleapis.com%2Fcss%3Ffamily%3DArchitects%2BDaughter;labelBackgroundColor=none;fontColor=default;" parent="1" source="lrwaEqQYKMA3znreD-7c-116" target="lrwaEqQYKMA3znreD-7c-121" edge="1">
          <mxGeometry relative="1" as="geometry">
            <Array as="points">
              <mxPoint x="280" y="3154" />
              <mxPoint x="338" y="3154" />
            </Array>
          </mxGeometry>
        </mxCell>
        <mxCell id="lrwaEqQYKMA3znreD-7c-169" value="&lt;span style=&quot;font-size: 13px;&quot;&gt;&lt;b&gt;xxxviii&lt;/b&gt;&lt;/span&gt;" style="edgeLabel;html=1;align=center;verticalAlign=middle;resizable=0;points=[];" parent="lrwaEqQYKMA3znreD-7c-122" vertex="1" connectable="0">
          <mxGeometry x="-0.8033" y="1" relative="1" as="geometry">
            <mxPoint as="offset" />
          </mxGeometry>
        </mxCell>
      </root>
    </mxGraphModel>
  </diagram>
</mxfile>
